
<svg width="24" height="24" viewBox="0 0 24 24" fill="none" xmlns="http://www.w3.org/2000/svg">
  <path d="M21.1454 11.0254C21.1454 6.60404 17.7555 3 13.596 3C9.43642 3 6.04657 6.60404 6.04657 11.0254C6.04657 15.0357 8.7426 18.3621 12.3369 18.9685C12.3369 18.9685 11.8876 21.7541 11.8876 21.9985C11.8876 22.5538 12.3139 23 12.8463 23H14.3456C14.8781 23 15.3044 22.5538 15.3044 21.9985C15.3044 21.8152 14.8551 18.9685 14.8551 18.9685C18.4494 18.3621 21.1454 15.0357 21.1454 11.0254Z" fill="url(#paint0_linear_206_2036)"/>
  <path d="M21.1454 11.0254C21.1454 6.60404 17.7555 3 13.596 3C9.43642 3 6.04657 6.60404 6.04657 11.0254C6.04657 15.0357 8.7426 18.3621 12.3369 18.9685C12.3369 18.9685 11.8876 21.7541 11.8876 21.9985C11.8876 22.5538 12.3139 23 12.8463 23H14.3456C14.8781 23 15.3044 22.5538 15.3044 21.9985C15.3044 21.8152 14.8551 18.9685 14.8551 18.9685C18.4494 18.3621 21.1454 15.0357 21.1454 11.0254Z" fill="url(#paint1_linear_206_2036)"/>
  <path d="M5.66466 11.2589C5.13223 11.2589 4.70197 10.8128 4.70197 10.2575V8.63098C4.70197 8.0757 5.13223 7.62952 5.66466 7.62952H7.13097C7.66341 7.62952 8.09367 8.0757 8.09367 8.63098V10.2575C8.09367 10.8128 7.66341 11.2589 7.13097 11.2589H5.66466Z" fill="white"/>
  <path d="M2 13.0326C2 12.4773 2.43026 12.0311 2.9627 12.0311H4.42901C4.96144 12.0311 5.3917 12.4773 5.3917 13.0326V14.6591C5.3917 15.2144 4.96144 15.6606 4.42901 15.6606H2.9627C2.43026 15.6606 2 15.2144 2 14.6591V13.0326Z" fill="white"/>
  <defs>
    <linearGradient id="paint0_linear_206_2036" x1="13.596" y1="3" x2="13.596" y2="23" gradientUnits="userSpaceOnUse">
      <stop stop-color="#534BB1"/>
      <stop offset="1" stop-color="#551BF9"/>
    </linearGradient>
    <linearGradient id="paint1_linear_206_2036" x1="13.596" y1="3" x2="13.596" y2="23" gradientUnits="userSpaceOnUse">
      <stop stop-color="#534BB1"/>
      <stop offset="1" stop-color="#551BF9"/>
    </linearGradient>
  </defs>
</svg>
