
<svg width="24" height="24" viewBox="0 0 24 24" fill="none" xmlns="http://www.w3.org/2000/svg">
  <path d="M6.528 10.832C9.15998 8.2 13.44 8.2 16.072 10.832L16.312 11.072C16.436 11.196 16.436 11.396 16.312 11.52L15.207 12.628C15.146 12.689 15.047 12.689 14.985 12.628L14.649 12.292C12.844 10.487 9.75697 10.487 7.95197 12.292L7.58997 12.653C7.528 12.715 7.42998 12.715 7.36797 12.653L6.26297 11.547C6.13897 11.423 6.13897 11.223 6.26297 11.099L6.528 10.832ZM18.527 13.288L19.527 14.288C19.651 14.412 19.651 14.612 19.527 14.736L14.858 19.403C14.736 19.526 14.537 19.526 14.413 19.403C14.413 19.403 14.413 19.403 14.413 19.403L11.193 16.183C11.162 16.152 11.112 16.152 11.081 16.183C11.081 16.183 11.081 16.183 11.081 16.183L7.86298 19.403C7.73999 19.526 7.53996 19.526 7.41698 19.403C7.41698 19.403 7.41698 19.403 7.41698 19.403L2.74298 14.735C2.61898 14.611 2.61898 14.411 2.74298 14.287L3.74299 13.287C3.86598 13.164 4.066 13.164 4.18898 13.287L7.40997 16.507C7.44098 16.538 7.49097 16.538 7.52197 16.507C7.52197 16.507 7.52197 16.507 7.52197 16.507L10.74 13.287C10.863 13.164 11.063 13.164 11.187 13.287C11.187 13.287 11.187 13.287 11.187 13.287L14.408 16.507C14.439 16.538 14.488 16.538 14.52 16.507L17.74 13.288C17.863 13.165 18.063 13.165 18.186 13.288L18.527 13.288Z" fill="#3B99FC"/>
</svg>
